/* XPM */
static char *_641429124601[] = {
/* columns rows colors chars-per-pixel */
"64 64 7 1 ",
"  c black",
". c #5D5959",
"X c #5F5D5D",
"o c gray38",
"O c #848383",
"+ c gray76",
"@ c white",
/* pixels */
"                                                                ",
"                                                                ",
"                         XXXXXXXXXX                             ",
"   @                 XXXXOOOOOOOOOOXXXX                         ",
"  @ @              X..OOOOOOOOOOOOOOOOO.XX              @@      ",
"   @              ..OOOOOOOOOOOOOOOOOOOOOOXX           @  @     ",
"                 .OOOOOOOOOOOOOOOOOOOOOOOOOOX          @  @     ",
"                XOOOOOOOOOOOOOOOOOOOOOOOOOOOO.X         @@      ",
"               XOOOOOOOOOOOOOOOOoOOOOOOOOOOOOOOX@               ",
"              .OOOOOOOOOOOOOOOOoOOOOOOOOOOOOOOOOX@              ",
"             XOOOOOooOOOOOOOOOOoOOOOOOOOOOOOOOOOOX              ",
"            XOOOOOoOoOOOOO++OOOOOOOOO++OOOOOOOOOOOX             ",
"            XOOOOoOOOoOO++OOOOOOOOOO+OOOOOOOoOOOOOX             ",
"           XOOOOOoOOOOO+OOOOOOOOOOO+OOOOOOOOoOOOOOOX            ",
"          XOOOOOOOOOOO+OOOOOOOOOO++OOOOOOOOOOoOOOOOX            ",
"         XOOOOOOOOOOO+OOOOOOOOOO+OOOOOOOOOOOOOoOOOOX            ",
"         XOOOOOOOOO++OOOOOOOOOO+OOOOOOOOOOOOOOoOOOOOX           ",
"        XOOOOOOOO++OOOOOOOOOOO+OOOOOOOOOOOOOOOOOOOOOX           ",
"        XOOOOOOO+OOOOOOOOOOOO+OOOOOOOOOOOOOOOOOOOOOOX           ",
"       XOOOOOO++OOOOOOOOOOOOO+OOOOOOOOOOOOOOOOOOOOOOX           ",
"       XOOOOO+OOOOOOOOOOOOOO+OOOOOOOOOOOOO+++OOOOOOOX           ",
"       XOOOOO+OOOooOOOOOOOOO+OOOOOOOOOOOO++OOOOOOOOOX@          ",
"      XOOOOO+OOOoOOOOOOOOOO+OOOOOOOOOOO++OOOOOOOOOOOX @         ",
"      XOOOO+OOOOOOOOOOOOOOOOOOOOOOOOO++OOOOOOOOOOOOOX@          ",
"      XOOO+OOOOOOO+OOOOOOOOOOOOOOOO++OOOOOOOOO+OOOOOX           ",
"      XOO+OOOOOOO+OOOOOOOOOOOOOOOOO+OOOOOOOOOO+OOOOOXX          ",
"      XOOOOOOOOO+OOOOOOOOOOOOOOOOOOOOOOOOOOOO+OOOOOOXX          ",
"      XOOOOOOOO+OOOOOOOOOOOOOOOOOOOOOOOOOOOO+OOOOOOOXX          ",
"      XOOOOOOO+OOOOOOOOOOOOOOOOOOOOOOOOOOOOO+OOOOOOOXX          ",
"      XOOOOOOO+OOOOOOOOOOOOOOooOOOOOOOOOOOO+OOOOOOOOXX          ",
"      XOOOOOO+OOOOOOOOOOOOOOOOoOOOOOOOOOOOOOOOOOOOOOX           ",
"      XOOOOOO+OOOOOOOOOOOOOOOOoOOOOOOO+OOOOOOOOOOOOOX           ",
"      XOOOOOO+OOOOOOO++OOOOOOoOOOOOOO+OOOOOOOOOOOOOOX           ",
"      XOOOOOO+OOOOOO++OOOOOOOOOOOOO++OOOOOOOOOOOOOOOX           ",
"      XOOOOOO+OOOOOO+OOOOOOOOOOOOO++OOOOOOOOOOOOOOOOX           ",
"    @ XXOOOOO+OOOOO+OOOOOOOOOOOOO+OOOOOOO+OOOOOOOOOXX           ",
"   @ @  XOOOOOOOOOO+OOOOOOOOOOOOOOOOOOOO+OOOOOOOOOOX            ",
"    @   XOOOOOOOOO++OOOOOOOOOOOOOOOOOO++OOOOOOOOOOOX            ",
"        XOOOOOOOOO+OOOOOOOOOOOOOOOOOO+OOOOOOOO+OOOXX            ",
"        XOOOOOOOOO+OOOOOOOOOOOOOOOOO+OOOOOOOO++OOOX             ",
"        XOOOOOOOOO+OOOOOOOOOOOOOOOO+OOOOOOOO++OOOOX             ",
"        XOOOOOOOOOOOOOOOOOOOO+OOOO+OOoOOOOO++OOOOXX             ",
"        XOOOOOOOOOOOOOOOOO+++OOOOOOOOoOOOOO+OOOOXX              ",
"        XOOOOOOOOOOOOOOOO+OOOOOOOOOOoOOOOOOOOOOOX               ",
"        XOOOOOOOOOOOOOOOOOOOOOOOOOOOoOOOOOOOOOOOX               ",
"        XOOOOOOoOOOOOOOOOOOOOOOOOOOOOOOOOOOOOOOOX               ",
"         XOOOOOOoOOOOOOOOOOOOOOOOOOOOOOOOOOOOOOX                ",
"         XOOOOOOOoOOOOOOOOOOOOOOOOOOOOO+OOOOOOOX                ",
"          XOOOOOOoOOOOOOOOOOOOOOOOOOOO++OOOOOOX                 ",
"          XOOOOOOOOOOOOOOOOOOOOOOOOO++OOOOOOOX                  ",
"          XOOOOOOOOOOOOOOOOOOOOOOOOOOOOOOOOOX     @             ",
"           XOOOOOOOOOOOOOOOOOOOOOOOOOOOOOOOOX    @ @            ",
"            XOOOOOOOOOOOOOOOO+++OOOOOOOOOOOX      @             ",
"       @@   XOOOOOOOOOOOOO+++OOOOOOOOOOOOOX                     ",
"      @  @   XOOOOOOOOOOOOOOOOOOOOOOOOOXXX                      ",
"      @  @    XXXXXXXOOOOOOOOOOOOOXXXXXX                        ",
"       @@            XXXXXXXXXXXXX                              ",
"                                                                ",
"                                                                ",
"                                                                ",
"                                                                ",
"                                                                ",
"                                                                ",
"                                                                "
};
