/* XPM */
static char *_641437280206[] = {
/* columns rows colors chars-per-pixel */
"64 64 6 1 ",
"  c black",
". c gray1",
"X c #3B0052",
"o c #570079",
"O c #7B04A9",
"+ c white",
/* pixels */
"                                                                ",
"                                                                ",
"                                                                ",
"   +                               +                            ",
"  + +                             + +                   ++      ",
"   +                               +                   +  +     ",
"                                                       +  +     ",
"                                                        ++      ",
"                                                +               ",
"               ++                              + +              ",
"              +  +                              +               ",
"              +  +                                              ",
"               ++                   OOOO                        ",
"                                  OOOOOOOO                      ",
"                                 OOoOOOOOOO                     ",
"                    O           OOoOO    OOO                    ",
"                   OO +        OOoOO      OOO                   ",
"                  OO + +      OOooO         OO                  ",
"                 OOO  +     OOOOooO                             ",
"                OOO       OOOOooooO +                           ",
"                OO       OOOooooooOO +                          ",
"               OOOO     OOOooooooooOO                +          ",
"               OooOO   OOOoooooooooOOO              + +         ",
"               OOooOO  OOooooooXooooOOO              +          ",
"               OOOooOOOOooooooXXXoooOOO                         ",
"                OOoooOooooooXXXXXXoooOOO                        ",
"                OOOooooooooXXX  XXXoooOO                        ",
"             +   OOOooooooXXX   XXXoooOOO                       ",
"            + +   OOOOooooXXX   XXXooooOOO                      ",
"             +     OOOooooXXXX XXXXooooOOOO                     ",
"                    OOOooooXXXXXXXooooooooOO                    ",
"                     OOooooXXXXXXooooooooooOO                   ",
"                     OOOooooXXXXoooooOOOOooOO                   ",
"                      OOooooooooooooOOOOOOooOO                  ",
"                      OOOooooooooooOOO   OOoOO                  ",
"    +                  OOOooooooooOOO     OoOO                  ",
"   + +         +    .   OOooooooOOOO      OoOO                  ",
"    +         + +  ...   OOoooOOOOO       OoO                   ",
"               +     .    OoooOOO         OOO  +                ",
"               OO  .      OooOO          OOO  + +               ",
"                OOO...    OoOO          OOO    +                ",
"                 OOO..   OoOO       ++  OO                      ",
"                  OOOOOOOoOO       +  +OO                       ",
"                   OOOOOOOO        +  +O                        ",
"                     OOOO           ++                          ",
"                                                                ",
"                                                                ",
"                                                                ",
"                                                                ",
"                +                                               ",
"               + +                                +             ",
"                +                                + +            ",
"                                                  +             ",
"       ++                         +                             ",
"      +  +                       + +                            ",
"      +  +                        +                             ",
"       ++                                                       ",
"                                                                ",
"                                                                ",
"                                                                ",
"                                                                ",
"                                                                ",
"                                                                ",
"                                                                "
};
