/* XPM */
static char *_641429134311[] = {
/* columns rows colors chars-per-pixel */
"64 64 14 1 ",
"  c black",
". c gray1",
"X c #040503",
"o c #2E3938",
"O c #585858",
"+ c #5A5A5A",
"@ c #4E5A7C",
"# c #BCED09",
"$ c #2B59E1",
"% c #4EAAA6",
"& c #52AAA6",
"* c #37CFC8",
"= c #4BCEC8",
"- c white",
/* pixels */
"                                                                ",
"                                                                ",
"                                                                ",
"   -                               -                            ",
"  - -                             - -                   --      ",
"   -                               -                   -  -     ",
"                                                       -  -     ",
"                                                        --      ",
"                                                -               ",
"               --                              - -              ",
"              -  -                              -               ",
"              -  -   %%%%%%%%%%%%%%%%%%%%                       ",
"               --   %====================%                      ",
"                  %%======================%%                    ",
"                %%====%%%%%%%%%%%%%%%%%%&===%%                  ",
"             %%%====%%               oooo%%===%                 ",
"            %====%%%  -           oooo     %%==%%               ",
"           %==%%%o   - -       oooo          %===%%             ",
"          %==%   ooo  -      ooo              %%===%%%          ",
"         %==%      o       ooo      -           %%===%%         ",
"         %==%      oo     ooo      - -            %%===%        ",
"         %==%       oo   oo         -               %%==%       ",
"         %==%        o  oo                          - %=%       ",
"         %==%        ooooo                           -%=%       ",
"         %==%       o+++++o                           %=%       ",
"         %==%    ooo++++++ooo                         %=%       ",
"         %==%   o+++++++++++ooo                       %=%       ",
"         %==%-  o++++++++@@@+ooo%%%%%%%%%%%%          %=%       ",
"         %==% - o++++++++@$$@++ooooooooooooo%%%%%%%%%%==%       ",
"          %==%%%o++++++++@$$@@@+oooooooooooo===========%        ",
"           %=**=o++++++++@$$$$@++++++++++++++++%%%%%%%%         ",
"               Xo++++++++@$$$$+++++++++++#                      ",
"            %%%%o++++++++@$$$$@++++++++++#                      ",
"           %=**=o++++++++@$$$$@++++++++++++++++%%%%%%%%         ",
"          %==%%%o++++++++@$$@@@+oooooooooooo===========%        ",
"    -    %==%   o++++++++@$$@++ooooooooooooo%%%%%%%%%%==%       ",
"   - -   %==%  -o++++++++@@@+ooo%%%%%%%%%%%%          %=%       ",
"    -    %==% - o+++++++++++ooo                       %=%       ",
"         %==%  - ooo++++++ooo                  -      %=%       ",
"         %==%       o+++++o                   - -     %=%       ",
"         %==%       Xooooo                     -      %=%       ",
"         %==%      XXo  oo          --                %=%       ",
"         %==%       oo   oo        -  -             %%==%       ",
"         %==%      oo     ooo      -  -           %%===%        ",
"         %==%      o       ooo      --          %%===%%         ",
"          %==%   ooo         ooo              %%===%%%          ",
"           %==%%%o             oooo          %===%%             ",
"            %====%%%              oooo     %%==%%               ",
"             %%%====%%               oooo%%===%                 ",
"                %%====%%%%%%%%%%%%%%%%%%&===%%                  ",
"               - -%%======================%%      -             ",
"                -   %====================%       - -            ",
"                     %%%%%%%%%%%%%%%%%%%%         -             ",
"       --                         -                             ",
"      -  -                       - -                            ",
"      -  -                        -                             ",
"       --                                                       ",
"                                                                ",
"                                                                ",
"                                                                ",
"                                                                ",
"                                                                ",
"                                                                ",
"                                                                "
};
